<svg width="129" height="124" viewBox="0 0 129 124" fill="none" xmlns="http://www.w3.org/2000/svg">
<rect width="129" height="124" fill="black"/>
<rect x="16.5" y="18.5" width="95" height="87" fill="black" stroke="white" stroke-width="3"/>
<path d="M41.5227 68V38.9091H51.6932C53.7197 38.9091 55.3911 39.2595 56.7074 39.9602C58.0237 40.6515 59.0038 41.5843 59.6477 42.7585C60.2917 43.9233 60.6136 45.2159 60.6136 46.6364C60.6136 47.8864 60.3911 48.9186 59.946 49.733C59.5104 50.5473 58.9328 51.1913 58.2131 51.6648C57.5028 52.1383 56.7311 52.4886 55.8977 52.7159V53C56.7879 53.0568 57.6828 53.3693 58.5824 53.9375C59.482 54.5057 60.2348 55.3201 60.8409 56.3807C61.447 57.4413 61.75 58.7386 61.75 60.2727C61.75 61.7311 61.4186 63.0426 60.7557 64.2074C60.0928 65.3722 59.0464 66.2955 57.6165 66.9773C56.1866 67.6591 54.3258 68 52.0341 68H41.5227ZM45.0455 64.875H52.0341C54.3352 64.875 55.9688 64.4299 56.9347 63.5398C57.91 62.6402 58.3977 61.5511 58.3977 60.2727C58.3977 59.2879 58.1468 58.3788 57.6449 57.5455C57.143 56.7027 56.428 56.0303 55.5 55.5284C54.572 55.017 53.4735 54.7614 52.2045 54.7614H45.0455V64.875ZM45.0455 51.6932H51.5795C52.6402 51.6932 53.5966 51.4848 54.4489 51.0682C55.3106 50.6515 55.9924 50.0644 56.4943 49.3068C57.0057 48.5492 57.2614 47.6591 57.2614 46.6364C57.2614 45.358 56.8163 44.2737 55.9261 43.3835C55.036 42.4839 53.625 42.0341 51.6932 42.0341H45.0455V51.6932Z" fill="white"/>
<path d="M41.5227 68H40.5227V69H41.5227V68ZM41.5227 38.9091V37.9091H40.5227V38.9091H41.5227ZM56.7074 39.9602L56.2375 40.8429L56.2424 40.8456L56.7074 39.9602ZM59.6477 42.7585L58.7709 43.2394L58.7726 43.2424L59.6477 42.7585ZM59.946 49.733L59.0685 49.2534L59.0642 49.2613L59.946 49.733ZM58.2131 51.6648L57.6634 50.8293L57.6584 50.8327L58.2131 51.6648ZM55.8977 52.7159L55.6346 51.7511L54.8977 51.9521V52.7159H55.8977ZM55.8977 53H54.8977V53.9382L55.834 53.998L55.8977 53ZM58.5824 53.9375L58.0484 54.783L58.0484 54.783L58.5824 53.9375ZM60.7557 64.2074L61.6248 64.702L61.6248 64.702L60.7557 64.2074ZM57.6165 66.9773L57.1861 66.0746L57.1861 66.0746L57.6165 66.9773ZM45.0455 64.875H44.0455V65.875H45.0455V64.875ZM56.9347 63.5398L57.6123 64.2751L57.6126 64.2748L56.9347 63.5398ZM57.6449 57.5455L56.7857 58.0571L56.7883 58.0614L57.6449 57.5455ZM55.5 55.5284L55.0174 56.4043L55.0243 56.408L55.5 55.5284ZM45.0455 54.7614V53.7614H44.0455V54.7614H45.0455ZM45.0455 51.6932H44.0455V52.6932H45.0455V51.6932ZM54.4489 51.0682L54.0136 50.1679L54.0097 50.1698L54.4489 51.0682ZM56.4943 49.3068L55.6654 48.7473L55.6607 48.7545L56.4943 49.3068ZM55.9261 43.3835L55.2153 44.0869L55.219 44.0906L55.9261 43.3835ZM45.0455 42.0341V41.0341H44.0455V42.0341H45.0455ZM42.5227 68V38.9091H40.5227V68H42.5227ZM41.5227 39.9091H51.6932V37.9091H41.5227V39.9091ZM51.6932 39.9091C53.6119 39.9091 55.1084 40.2418 56.2375 40.8429L57.1773 39.0775C55.6738 38.2771 53.8275 37.9091 51.6932 37.9091V39.9091ZM56.2424 40.8456C57.4046 41.4559 58.2318 42.2562 58.7709 43.2394L60.5245 42.2777C59.7758 40.9123 58.6428 39.8471 57.1723 39.0749L56.2424 40.8456ZM58.7726 43.2424C59.3291 44.2491 59.6136 45.3734 59.6136 46.6364H61.6136C61.6136 45.0584 61.2542 43.5975 60.5229 42.2747L58.7726 43.2424ZM59.6136 46.6364C59.6136 47.7745 59.4102 48.6282 59.0685 49.2534L60.8235 50.2125C61.372 49.2089 61.6136 47.9982 61.6136 46.6364H59.6136ZM59.0642 49.2613C58.7015 49.9395 58.2338 50.4541 57.6635 50.8294L58.7627 52.5002C59.6317 51.9285 60.3194 51.1551 60.8278 50.2046L59.0642 49.2613ZM57.6584 50.8327C57.0387 51.2459 56.3655 51.5518 55.6346 51.7511L56.1608 53.6807C57.0966 53.4255 57.967 53.0306 58.7678 52.4968L57.6584 50.8327ZM54.8977 52.7159V53H56.8977V52.7159H54.8977ZM55.834 53.998C56.5277 54.0422 57.2631 54.287 58.0484 54.783L59.1164 53.092C58.1025 52.4517 57.0481 52.0714 55.9614 52.002L55.834 53.998ZM58.0484 54.783C58.7904 55.2517 59.4357 55.9371 59.9727 56.8768L61.7092 55.8845C61.034 54.7031 60.1736 53.7597 59.1164 53.092L58.0484 54.783ZM59.9727 56.8768C60.4729 57.7523 60.75 58.8688 60.75 60.2727H62.75C62.75 58.6085 62.421 57.1303 61.7092 55.8845L59.9727 56.8768ZM60.75 60.2727C60.75 61.5734 60.4562 62.7118 59.8866 63.7128L61.6248 64.702C62.3809 63.3734 62.75 61.8888 62.75 60.2727H60.75ZM59.8866 63.7128C59.3421 64.6694 58.4659 65.4644 57.1861 66.0746L58.0469 67.8799C59.6269 67.1265 60.8435 66.0749 61.6248 64.702L59.8866 63.7128ZM57.1861 66.0746C55.9368 66.6703 54.2384 67 52.0341 67V69C54.4131 69 56.4363 68.6479 58.0469 67.8799L57.1861 66.0746ZM52.0341 67H41.5227V69H52.0341V67ZM45.0455 65.875H52.0341V63.875H45.0455V65.875ZM52.0341 65.875C54.4138 65.875 56.3653 65.4243 57.6123 64.2751L56.257 62.8044C55.5722 63.4355 54.2567 63.875 52.0341 63.875V65.875ZM57.6126 64.2748C58.7845 63.194 59.3977 61.8421 59.3977 60.2727H57.3977C57.3977 61.2601 57.0356 62.0863 56.2567 62.8047L57.6126 64.2748ZM59.3977 60.2727C59.3977 59.1084 59.0984 58.0206 58.5015 57.0295L56.7883 58.0614C57.1951 58.7369 57.3977 59.4673 57.3977 60.2727H59.3977ZM58.5041 57.0338C57.9029 56.0243 57.05 55.2298 55.9757 54.6488L55.0243 56.408C55.8061 56.8308 56.3831 57.381 56.7857 58.0571L58.5041 57.0338ZM55.9826 54.6526C54.8801 54.0451 53.609 53.7614 52.2045 53.7614V55.7614C53.338 55.7614 54.2638 55.989 55.0174 56.4042L55.9826 54.6526ZM52.2045 53.7614H45.0455V55.7614H52.2045V53.7614ZM44.0455 54.7614V64.875H46.0455V54.7614H44.0455ZM45.0455 52.6932H51.5795V50.6932H45.0455V52.6932ZM51.5795 52.6932C52.7743 52.6932 53.8836 52.4576 54.8881 51.9666L54.0097 50.1698C53.3095 50.5121 52.5061 50.6932 51.5795 50.6932V52.6932ZM54.8842 51.9685C55.8985 51.478 56.7216 50.7744 57.328 49.8591L55.6607 48.7545C55.2633 49.3544 54.7227 49.825 54.0136 50.1679L54.8842 51.9685ZM57.3232 49.8663C57.9591 48.9242 58.2614 47.8339 58.2614 46.6364H56.2614C56.2614 47.4843 56.0523 48.1743 55.6655 48.7473L57.3232 49.8663ZM58.2614 46.6364C58.2614 45.0974 57.7142 43.7573 56.6332 42.6764L55.219 44.0906C55.9184 44.79 56.2614 45.6185 56.2614 46.6364H58.2614ZM56.637 42.6802C55.4801 41.511 53.7539 41.0341 51.6932 41.0341V43.0341C53.4961 43.0341 54.5919 43.4568 55.2153 44.0869L56.637 42.6802ZM51.6932 41.0341H45.0455V43.0341H51.6932V41.0341ZM44.0455 42.0341V51.6932H46.0455V42.0341H44.0455Z" fill="#FDFCFC"/>
<path d="M67.5227 86V56.9091H77.3523C79.625 56.9091 81.4905 57.2973 82.9489 58.0739C84.4072 58.8409 85.4867 59.8968 86.1875 61.2415C86.8883 62.5862 87.2386 64.1155 87.2386 65.8295C87.2386 67.5436 86.8883 69.0634 86.1875 70.3892C85.4867 71.715 84.4119 72.7566 82.9631 73.5142C81.5142 74.2623 79.6629 74.6364 77.4091 74.6364H69.4545V71.4545H77.2955C78.8485 71.4545 80.0985 71.2273 81.0455 70.7727C82.0019 70.3182 82.6932 69.6742 83.1193 68.8409C83.5549 67.9981 83.7727 66.9943 83.7727 65.8295C83.7727 64.6648 83.5549 63.6468 83.1193 62.7756C82.6837 61.9044 81.9877 61.232 81.0312 60.7585C80.0748 60.2756 78.8106 60.0341 77.2386 60.0341H71.0455V86H67.5227ZM81.2159 72.9318L88.375 86H84.2841L77.2386 72.9318H81.2159Z" fill="white"/>
<path d="M67.5227 86H66.5227V87H67.5227V86ZM67.5227 56.9091V55.9091H66.5227V56.9091H67.5227ZM82.9489 58.0739L82.4789 58.9565L82.4834 58.9589L82.9489 58.0739ZM86.1875 61.2415L85.3007 61.7036L85.3007 61.7036L86.1875 61.2415ZM86.1875 70.3892L85.3034 69.9219L85.3034 69.9219L86.1875 70.3892ZM82.9631 73.5142L83.4219 74.4028L83.4264 74.4004L82.9631 73.5142ZM69.4545 74.6364H68.4545V75.6364H69.4545V74.6364ZM69.4545 71.4545V70.4545H68.4545V71.4545H69.4545ZM81.0455 70.7727L80.6162 69.8695L80.6127 69.8712L81.0455 70.7727ZM83.1193 68.8409L82.231 68.3818L82.229 68.3856L83.1193 68.8409ZM81.0312 60.7585L80.5805 61.6512L80.5876 61.6547L81.0312 60.7585ZM71.0455 60.0341V59.0341H70.0455V60.0341H71.0455ZM71.0455 86V87H72.0455V86H71.0455ZM81.2159 72.9318L82.0929 72.4514L81.8083 71.9318H81.2159V72.9318ZM88.375 86V87H90.0631L89.252 85.5195L88.375 86ZM84.2841 86L83.4039 86.4746L83.6872 87H84.2841V86ZM77.2386 72.9318V71.9318H75.5634L76.3584 73.4064L77.2386 72.9318ZM68.5227 86V56.9091H66.5227V86H68.5227ZM67.5227 57.9091H77.3523V55.9091H67.5227V57.9091ZM77.3523 57.9091C79.5196 57.9091 81.2093 58.2805 82.4789 58.9565L83.4189 57.1912C81.7718 56.3142 79.7304 55.9091 77.3523 55.9091V57.9091ZM82.4834 58.9589C83.7779 59.6398 84.7022 60.5552 85.3007 61.7036L87.0743 60.7793C86.2712 59.2383 85.0365 58.042 83.4144 57.1888L82.4834 58.9589ZM85.3007 61.7036C85.9179 62.8879 86.2386 64.2552 86.2386 65.8295H88.2386C88.2386 63.9758 87.8586 62.2844 87.0743 60.7793L85.3007 61.7036ZM86.2386 65.8295C86.2386 67.4042 85.9178 68.7596 85.3034 69.9219L87.0716 70.8565C87.8587 69.3673 88.2386 67.683 88.2386 65.8295H86.2386ZM85.3034 69.9219C84.7058 71.0524 83.7861 71.9554 82.4997 72.628L83.4264 74.4004C85.0377 73.5579 86.2677 72.3775 87.0716 70.8565L85.3034 69.9219ZM82.5043 72.6257C81.2409 73.278 79.561 73.6364 77.4091 73.6364V75.6364C79.7648 75.6364 81.7875 75.2466 83.4219 74.4027L82.5043 72.6257ZM77.4091 73.6364H69.4545V75.6364H77.4091V73.6364ZM70.4545 74.6364V71.4545H68.4545V74.6364H70.4545ZM69.4545 72.4545H77.2955V70.4545H69.4545V72.4545ZM77.2955 72.4545C78.9325 72.4545 80.3473 72.2171 81.4782 71.6742L80.6127 69.8712C79.8497 70.2375 78.7645 70.4545 77.2955 70.4545V72.4545ZM81.4747 71.6759C82.6025 71.1399 83.4703 70.3509 84.0097 69.2962L82.229 68.3856C81.9161 68.9976 81.4013 69.4964 80.6162 69.8695L81.4747 71.6759ZM84.0077 69.3001C84.5315 68.2866 84.7727 67.1183 84.7727 65.8295H82.7727C82.7727 66.8704 82.5784 67.7096 82.231 68.3818L84.0077 69.3001ZM84.7727 65.8295C84.7727 64.5396 84.5311 63.3631 84.0137 62.3284L82.2249 63.2228C82.5787 63.9305 82.7727 64.7899 82.7727 65.8295H84.7727ZM84.0137 62.3284C83.4714 61.2436 82.6067 60.4226 81.4749 59.8623L80.5876 61.6547C81.3686 62.0414 81.8961 62.5651 82.2249 63.2228L84.0137 62.3284ZM81.482 59.8659C80.3359 59.2871 78.8996 59.0341 77.2386 59.0341V61.0341C78.7216 61.0341 79.8137 61.264 80.5805 61.6512L81.482 59.8659ZM77.2386 59.0341H71.0455V61.0341H77.2386V59.0341ZM70.0455 60.0341V86H72.0455V60.0341H70.0455ZM71.0455 85H67.5227V87H71.0455V85ZM80.3389 73.4123L87.498 86.4805L89.252 85.5195L82.0929 72.4514L80.3389 73.4123ZM88.375 85H84.2841V87H88.375V85ZM85.1643 85.5254L78.1189 72.4573L76.3584 73.4064L83.4039 86.4746L85.1643 85.5254ZM77.2386 73.9318H81.2159V71.9318H77.2386V73.9318Z" fill="#FDFCFC"/>
</svg>
